<svg xmlns="http://www.w3.org/2000/svg" version="1.1" xmlns:xlink="http://www.w3.org/1999/xlink" xmlns:svgjs="http://svgjs.dev/svgjs" viewBox="0 0 800 800"><defs><linearGradient x1="50%" y1="0%" x2="50%" y2="100%" id="uundulate-grad"><stop stop-color="hsl(205, 69%, 60%)" stop-opacity="1" offset="45%" data-darkreader-inline-stopcolor="" style="--darkreader-inline-stopcolor: #1b6192;"></stop><stop stop-color="hsl(205, 69%, 80%)" stop-opacity="1" offset="100%" data-darkreader-inline-stopcolor="" style="--darkreader-inline-stopcolor: #123f5f;"></stop></linearGradient></defs><g stroke-width="2" stroke="url(#uundulate-grad)" fill="none"><path d="M664.6387546549818 273.5825663504288C713.1228577382634 496.0030642161461 581.6425237460688 898.2628918402304 473.6685201992465 934.2769320013506C365.6945166524242 970.2909721624708 194.8476407135164 668.8704569895226 146.36353763023482 446.44995912380557C97.87943454695323 224.0294612580883 132.97082185267175 -97.3274175929717 240.9448253994941 -133.3414577540919C348.91882894631635 -169.35549791521214 616.1546515717001 51.162068484711654 664.6387546549818 273.5825663504288C713.1228577382634 496.0030642161461 581.6425237460688 898.2628918402304 473.6685201992465 934.2769320013506 "></path><path d="M652.6097189653199 279.32879807571135C698.8899991811796 491.6392733111687 573.3860440068122 875.6145633159765 470.31994971211816 909.9916016515913C367.2538554174241 944.368639987206 204.17274656664847 656.649057322119 157.89246635078877 444.33858208666175C111.61218613492906 232.02810685120426 145.10851038129675 -74.72164114298931 248.1746046759908 -109.09867947860408C351.2406989706849 -143.4757178142188 606.3294387494602 67.01832284025386 652.6097189653199 279.32879807571135C698.8899991811796 491.6392733111687 573.3860440068122 875.6145633159765 470.31994971211816 909.9916016515913 "></path><path d="M640.5806832756582 285.0750908361499C684.6571406240959 487.2755434413473 565.1295642675555 852.9662958268786 466.97137922498973 885.706332336988C368.813194182424 918.4463688470971 213.49785241978054 644.4277186898717 169.42139507134272 442.22726608467417C125.34493772290489 240.0268134794767 157.24619890992176 -52.11580365785068 255.40438395248754 -84.85584016795997C353.5625689950533 -117.59587667806926 596.5042259272202 82.87463823095231 640.5806832756582 285.0750908361499C684.6571406240959 487.2755434413473 565.1295642675555 852.9662958268786 466.97137922498973 885.706332336988 "></path><path d="M628.5516475859963 290.8213225614322C670.4242820670122 482.9117525363698 556.8730845282988 830.3179673026243 463.6228087378613 861.4210019872285C370.3725329474239 892.5240366718322 222.82295827291262 632.2063190224678 180.95032379189666 440.11588904753023C139.07768931088077 248.02545907259264 169.38388743854676 -29.510027207868347 262.6341632289842 -60.61306189247216C355.88443901942173 -91.71609657707597 586.6790131049804 98.73089258649452 628.5516475859963 290.8213225614322C670.4242820670122 482.9117525363698 556.8730845282988 830.3179673026243 463.6228087378613 861.4210019872285 "></path><path d="M616.5226118963344 296.56755428671454C656.1914235099284 478.54796163139235 548.6166047890422 807.6696387783704 460.2742382507329 837.1356716374689C371.9318717124238 866.601704496567 232.1480641260447 619.9849193550642 192.47925251245067 438.0045120103864C152.8104408988566 256.0241046657086 181.52157596717177 -6.904250757885961 269.86394250548096 -36.370283616984295C358.20630904379016 -65.83631647608263 576.8538002827404 114.58714694203678 616.5226118963344 296.56755428671454C656.1914235099284 478.54796163139235 548.6166047890422 807.6696387783704 460.2742382507329 837.1356716374689 "></path><path d="M604.4935762066726 302.313816529575C641.9585649528448 474.1842012439929 540.3601250497854 785.0213407716944 456.92566776360457 812.8503718052875C373.4912104774237 840.6794028388802 241.47316997917676 607.7635502052385 204.00818123300462 435.8931654908206C166.54319248683248 264.0227807764028 193.65926449579678 15.70155620967455 277.0937217819777 -12.127474823918305C360.5281790681586 -39.95650585751122 567.0285874605005 130.44343181515717 604.4935762066726 302.313816529575C641.9585649528448 474.1842012439929 540.3601250497854 785.0213407716944 456.92566776360457 812.8503718052875 "></path><path d="M592.4645405170108 308.06010929001354C627.7257063957611 469.8204713741716 532.1036453105287 762.3730732825966 453.57709727647614 788.565102490684C375.0505492424236 814.7571316987714 250.79827583230883 595.5422115729909 215.53710995355857 433.7818494888329C180.2759440748083 272.0214874046751 205.79695302442178 38.307393694813186 284.3235010584744 12.115364486725753C362.850049092527 -14.07666472136168 557.2033746382606 146.29974720585562 592.4645405170108 308.06010929001354C627.7257063957611 469.8204713741716 532.1036453105287 762.3730732825966 453.57709727647614 788.565102490684 "></path><path d="M580.4355048273491 313.80634101529597C613.4928478386774 465.4566804691941 523.8471655712721 739.7247447583427 450.2285267893478 764.2797721409245C376.6098880074235 788.8347995235065 260.1233816854409 583.3208119055873 227.06603867411252 431.6704724516892C194.00869566278413 280.02013299779105 217.9346415530468 60.91317014479557 291.5532803349711 36.35814276221362C365.1719191168954 11.803115379631663 547.3781618160208 162.15600156139783 580.4355048273491 313.80634101529597C613.4928478386774 465.4566804691941 523.8471655712721 739.7247447583427 450.2285267893478 764.2797721409245 "></path><path d="M568.4064996552654 319.5525727405784C599.2600197991719 461.09288956421665 515.5907163495935 717.0764162340885 446.8799868197975 739.994441791165C378.1692572900015 762.9124673482415 269.4485180561511 571.0994122381835 238.5949979122446 429.55909541454525C207.74147776833814 288.018778590907 230.07236059924992 83.51894659477796 298.78309012904595 60.600921037701426C367.49381965884197 37.68289548062495 537.5529795113589 178.01225591694003 568.4064996552654 319.5525727405784C599.2600197991719 461.09288956421665 515.5907163495935 717.0764162340885 446.8799868197975 739.994441791165 "></path><path d="M556.3774639656035 325.2988044658607C585.0271612420881 456.72909865923907 507.3342366103368 694.4280877098344 443.5314163326691 715.7091114414054C379.7285960550014 736.9901351729765 278.7736239092831 558.8780125707799 250.12392663279854 427.44771837740154C221.47422935631397 296.01742418402307 242.21004912787492 106.12472304476034 306.0128694055427 84.84369931318929C369.8156896832104 63.56267558161824 527.7277666891189 193.8685102724823 556.3774639656035 325.2988044658607C585.0271612420881 456.72909865923907 507.3342366103368 694.4280877098344 443.5314163326691 715.7091114414054 "></path><path d="M544.3483977583636 331.04506670872115C570.7942721674264 452.3653382718396 499.07772635350204 671.7797897031584 440.18281532796254 691.423811609224C381.28790430242316 711.0678335152895 288.09869924483706 546.6566434209542 261.65282483577437 425.33637185783573C235.20695042671167 304.01610029471726 254.3477071389218 128.73053001232086 313.24261816446125 109.08650810625528C372.1375291900007 89.4424862001897 517.902523349301 209.72479514560263 544.3483977583636 331.04506670872115C570.7942721674264 452.3653382718396 499.07772635350204 671.7797897031584 440.18281532796254 691.423811609224 "></path><path d="M532.3193620687018 336.79129843400347C556.5614136103427 448.00154736686204 490.8212466142454 649.1314611789043 436.8342448408341 667.1384812594644C382.84724306742305 685.1455013400245 297.42380509796914 534.4352437535504 273.1817535563284 423.2249948206918C248.93970201468755 312.0147458878332 266.4853956675468 151.33630646230318 320.472397440958 133.3292863817431C374.4593992143691 115.32226630118299 508.07731052706094 225.5810495011449 532.3193620687018 336.79129843400347C556.5614136103427 448.00154736686204 490.8212466142454 649.1314611789043 436.8342448408341 667.1384812594644 "></path><path d="M520.2903568966182 342.53754541807496C542.328585570837 443.63777172067364 482.5647973925668 626.4831479134393 433.48570487128393 642.853166168494C384.40661235000107 659.2231844235486 306.74894146867933 522.2138593449358 284.71071279446045 421.11363304233714C262.6724841202415 320.01340673973834 278.62311471374994 173.94209817107463 327.7022072350328 157.57207991602002C376.7812997563157 141.20206166096534 498.25212822239916 241.43731911547616 520.2903568966182 342.53754541807496C542.328585570837 443.63777172067364 482.5647973925668 626.4831479134393 433.48570487128393 642.853166168494 "></path><path d="M508.26132120695627 348.28377714335727C528.0957270137533 439.2739808156962 474.30831765331016 603.8348193891852 430.1371343841555 618.5678358187345C385.96595111500096 633.3008522482835 316.0740473218114 509.9924596775321 296.2396415150144 419.0022560051932C276.4052357082174 328.0120523328543 290.76080324237495 196.54787462105702 334.93198651152954 181.81485819150788C379.10316978068414 167.08184176195869 488.42691540015926 257.29357347101836 508.26132120695627 348.28377714335727C528.0957270137533 439.2739808156962 474.30831765331016 603.8348193891852 430.1371343841555 618.5678358187345 "></path><path d="M496.2322855172945 354.0300393862177C513.8628684566696 434.9102204282967 466.0518379140534 581.1865213825092 426.78856389702713 594.282535986553C387.52528988000086 607.3785505905967 325.3991531749435 497.7710905277064 307.76857023556835 416.8909094856274C290.1379872961932 336.0107284435485 302.89849177099995 219.15368158861753 342.1617657880263 206.0576669845738C381.42503980505256 192.9616523805301 478.60170257791935 273.14985834413875 496.2322855172945 354.0300393862177C513.8628684566696 434.9102204282967 466.0518379140534 581.1865213825092 426.78856389702713 594.282535986553 "></path><path d="M484.2032498276327 359.77627111150014C499.63000989958596 430.54642952331926 457.7953581747968 558.5381928582551 423.43999340989876 569.9972056367934C389.08462864500075 581.4562184153317 334.72425902807555 485.5496908603027 319.2974989561223 414.77953244848356C303.87073888416904 344.00937403666444 315.03618029962496 241.75945803859992 349.391545064523 230.30044526006168C383.746909829421 218.84143248152344 468.77648975567945 289.00611269968095 484.2032498276327 359.77627111150014C499.63000989958596 430.54642952331926 457.7953581747968 558.5381928582551 423.43999340989876 569.9972056367934 "></path><path d="M472.1742141379709 365.5225333543606C485.3971513425022 426.1826691359198 449.5388784355401 535.8898948515791 420.09142292277033 545.711905804612C390.64396741000064 555.5339167576448 344.0493648812076 473.3283217104771 330.82642767667625 412.66818592891786C317.6034904721449 352.00805014735863 327.17386882824997 264.3652650061604 356.6213243410197 254.5432540531276C386.0687798537894 244.72124310009485 458.95127693343954 304.86239757280134 472.1742141379709 365.5225333543606C485.3971513425022 426.1826691359198 449.5388784355401 535.8898948515791 420.09142292277033 545.711905804612 "></path><path d="M460.1451784483091 371.26876507964295C471.1642927854185 421.8188782309423 441.2823986962834 513.2415663273251 416.74285243564196 521.4265754548525C392.20330617500053 529.6115845823797 353.3744707343397 461.1069220430734 342.3553563972302 410.55680889177404C331.33624206012075 360.00669574047464 339.31155735687497 286.9710414561428 363.8511036175164 278.7860323286155C388.39064987815783 270.60102320108814 449.1260641111996 320.71865192834355 460.1451784483091 371.26876507964295C471.1642927854185 421.8188782309423 441.2823986962834 513.2415663273251 416.74285243564196 521.4265754548525 "></path><path d="M448.11614275864724 377.0150273225034C456.9314342283348 417.4551178435429 433.0259189570267 490.59326832064914 413.3942819485136 497.14127562267095C393.7626449400004 503.68928292469286 362.6995765874717 448.88555289324773 353.88428511778415 408.4454623722082C345.0689936480966 368.0053718511688 351.4492458855 309.5768484237033 371.08088289401314 303.02884112168147C390.71251990252625 296.4808338196596 439.3008512889597 336.5749368014639 448.11614275864724 377.0150273225034C456.9314342283348 417.4551178435429 433.0259189570267 490.59326832064914 413.3942819485136 497.14127562267095 "></path><path d="M436.08710706898546 382.7612743065748C442.6985756712511 413.09134219735444 424.76943921777 467.9449550551841 410.04571146138517 472.85596053170053C395.3219837050003 477.7669660082169 372.0246824406038 436.6641684846331 365.41321383833815 406.33410059385346C358.80174523607246 376.00403270307385 363.586934414125 332.1826401324747 378.31066217050983 327.27163465595834C393.03438992689473 322.36062917944196 429.4756384667198 352.4312064157952 436.08710706898546 382.7612743065748C442.6985756712511 413.09134219735444 424.76943921777 467.9449550551841 410.04571146138517 472.85596053170053 "></path><path d="M424.0580713793236 388.50752129064625C428.46571711416743 408.727566551166 416.5129594785134 445.2966417897191 406.6971409742568 448.57064544073C396.8813224700002 451.84464909174096 381.34978829373586 424.44278407601837 376.9421425588921 404.22273881549864C372.5344968240483 384.0026935549789 375.72462294275 354.78843184124617 385.5404414470066 351.51442819023526C395.35625995126316 348.2404245392243 419.6504256444798 368.28747603012647 424.0580713793236 388.50752129064625C428.46571711416743 408.727566551166 416.5129594785134 445.2966417897191 406.6971409742568 448.57064544073 "></path><path d="M412.02903568966184 394.25375301592857C414.2328585570837 404.36377564618846 408.2564797392567 422.64831326546505 403.34857048712837 424.28531509097047C398.4406612350001 425.92231691647595 390.6748941468679 412.22138440861465 388.47107127944605 402.1113617783548C386.2672484120242 392.0013391480949 387.862311471375 377.39420829122855 392.77022072350326 375.7572064657231C397.6781299756316 374.12020464021765 409.8252128222399 384.14373038566873 412.02903568966184 394.25375301592857C414.2328585570837 404.36377564618846 408.2564797392567 422.64831326546505 403.34857048712837 424.28531509097047 "></path></g></svg>